<svg height="99" viewBox="0 0 600 99" width="600" xmlns="http://www.w3.org/2000/svg" xmlns:xlink="http://www.w3.org/1999/xlink"><linearGradient id="a" x1="0%" x2="100.150688%" y1="49.992693%" y2="49.992693%"><stop offset="0" stop-color="#156af8"/><stop offset="1" stop-color="#0078ff"/></linearGradient><g fill="none"><path d="m27.1828666 28.339374.2471169 32.7281713 6.3855025-.5485997c8.67602-.1402685 16.9395652-3.7274214 22.9667348-9.9697146 6.0271695-6.2422932 9.3224327-14.6265095 9.1584711-23.302114z" fill="url(#a)"/><path d="m34.5123558 98.4958814c-18.0554179.3057114-32.94666836-14.0702175-33.27677096-32.1252059l-1.13673805-66.2075783c18.07517611-.30001612 32.97134071 14.1093457 33.27182871 32.184514z" fill="#0078ff"/><g fill="#000" transform="translate(88.962109 16.30972)"><path d="m364.601318 4.70510708c-.715651.00129618-1.401256.28785411-1.904973.79621063-.503719.50835647-.78398 1.1965583-.778717 1.91219135v26.03130144h-41.23888v-26.08566717c0-1.47397246-1.194891-2.66886326-2.668863-2.66886326-1.473973 0-2.668864 1.1948908-2.668864 2.66886326v60.91433277c0 1.4794315 1.199317 2.678748 2.678748 2.678748 1.479432 0 2.678748-1.1993165 2.678748-2.678748v-29.228995h41.273476v29.214168c.000001 1.4685133 1.190466 2.6589781 2.658979 2.6589781s2.658978-1.1904648 2.658979-2.6589781v-60.84514004c.003943-.71609026-.277424-1.40427578-.781925-1.91248715-.504502-.50821137-1.190608-.79461173-1.906708-.79591483z"/><path d="m420.820428 21.3311367h-.172982c-1.434632.0027197-2.596952 1.1650402-2.59967 2.5996705v26.4415157c.013848 1.1384728-.053867 2.2764756-.202636 3.4052718-.425026 3.418332-2.069407 6.5684541-4.630972 8.8714992-3.795717 3.3657331-8.352554 4.6359143-13.546952 3.785832-5.930807-.9884679-9.988468-4.294893-12.009885-9.8846788-.659385-1.9601511-.965617-4.0217807-.904448-6.0889621v-26.5453048c-.00272-1.4346303-1.16504-2.5969508-2.59967-2.5996705h-.207579c-1.435758 0-2.59967 1.1639121-2.59967 2.5996705l.024711 26.8121911c-.004665 1.8783747.19922 3.751462.607908 5.5848435 1.428336 6.2421747 5.031302 10.8237233 10.700165 13.616145 2.957839 1.4335394 6.207473 2.1626348 9.494234 2.1301483 1.125418-.0001097 2.249658-.0727478 3.365733-.217463 5.189456-.6622734 9.390445-2.9011532 12.553542-6.6573311v3.1433278c.002718 1.4346302 1.165038 2.5969508 2.599671 2.5996706h.143327c1.434633-.0027198 2.596953-1.1650404 2.599671-2.5996706v-44.3970346c-.00131-.6916454-.277656-1.3543701-.768114-1.8420455s-1.154743-.760251-1.846384-.757625z"/><path d="m466.556837 21.2817133c-3.238028-1.0854528-6.667419-1.4810866-10.067545-1.1614497-5.547979.3164636-10.717878 2.9139353-14.283361 7.1762768v-3.3657332c-.002718-1.4346303-1.165038-2.5969508-2.599671-2.5996705h-.153212c-1.434633.0027197-2.596952 1.1650402-2.599671 2.5996705v44.3970346c.002719 1.4346302 1.165038 2.5969508 2.599671 2.5996706h.153212c1.434633-.0027198 2.596953-1.1650404 2.599671-2.5996706v-26.4266886c-.01715-1.0830573.053926-2.1657128.21252-3.2372323.914333-5.3574959 3.805602-9.2866557 8.584844-11.6738056 2.891268-1.4481054 6.187809-1.9275123 10.082372-1.4827018 6.024712.7018122 9.934102 3.9143328 11.624382 9.5584844.584071 2.181078.85204 4.4347018.795717 6.6919275v26.5848435c.002718 1.4346301 1.165038 2.5969507 2.599671 2.5996705h.182866c1.433832.0000024 2.596942-1.1609002 2.599671-2.5947282l.029654-26.8270181c.069272-2.9068063-.331271-5.8057285-1.186162-8.5848435-1.892916-5.7973641-5.658978-9.7067545-11.174629-11.6540363z"/><path d="m508.369028 65.8418451c-.410214-.0247117-.889621-.0543657-1.369028-.1037891-3.593081-.3904448-6.08402-2.0955519-7.616145-5.2191104-1.250412-2.5453047-1.408567-5.3130148-1.413509-7.413509 0-6.4316308 0-12.856672 0-19.2751236v-7.1416804h10.235585c1.434632-.0027197 2.596952-1.1650401 2.59967-2.5996705v-.2421746c-.002718-1.4346304-1.165038-2.5969509-2.59967-2.5996705h-10.265239v-7.5667216c-.002718-1.4346304-1.165038-2.5969509-2.599671-2.5996705h-.182866c-1.434633.0027196-2.596952 1.1650401-2.599671 2.5996705v7.6013179h-3.815486c-1.434632.0027197-2.596952 1.1650402-2.59967 2.5996706v.1779242c.002718 1.4346303 1.165038 2.5969508 2.59967 2.5996705h3.815486v6.1087314 19.7693575c0 1.2899506.039539 2.3327842.123559 3.2767711.385502 4.4481054 1.784184 7.9077429 4.265239 10.660626 2.802306 3.0691927 6.425041 4.5667216 11.041186 4.5667216h.222405c1.403244-.0037068 2.550302-1.120378 2.591674-2.5230159.041372-1.4026374-1.037876-2.5849754-2.438461-2.6713828z"/><path d="m233.614498 22.4481054c-3.459638-1.9423393-7.289951-2.7034596-11.757826-2.3130148-5.555189.4942339-9.92916 2.9258649-13.003295 7.2701812-.421389.6134546-.807516 1.2503992-1.156507 1.907743-3.182867-5.5008237-8.095552-8.5551894-14.634267-9.1729819-6.425041-.5782537-11.673806 1.3443164-15.682043 5.7133444v-1.8583196c0-1.4767021-1.197104-2.6738056-2.673805-2.6738056-1.476702 0-2.673806 1.1971035-2.673806 2.6738056v44.2734761c0 1.471243 1.192678 2.6639204 2.663921 2.6639204s2.663921-1.1926774 2.663921-2.6639204l.118616-30.1976936c.069193-3.9242175 1.749588-7.1861615 5.001647-9.7018122 3.113674-2.4019769 6.795717-3.291598 10.947282-2.6342669 4.072488.6425041 7.196046 2.6540363 9.286656 5.9654036 1.403624 2.2289951 2.080725 4.833608 2.075782 7.9670511v28.5370676c0 1.5012682 1.217019 2.7182866 2.718287 2.7182866s2.718287-1.2170184 2.718287-2.7182866v-20.2141681c0-.8698517 0-1.7397034 0-2.6095552 0-2.4711697-.029654-4.9769357.098846-7.4431631.121608-3.7643683 1.938137-7.2720879 4.94234-9.5436573 3.098847-2.4118616 6.780889-3.3163097 10.937397-2.6787479 3.673044.4625497 6.969669 2.4826549 9.049423 5.5453047 1.601318 2.3278419 2.377265 5.0609556 2.372323 8.3476112v28.630972c.061787 1.4414318 1.248349 2.5782213 2.691104 2.5782213s2.629317-1.1367895 2.691104-2.5782213v-28.8237232c.006414-1.6624399-.174295-3.3203204-.538715-4.9423394-1.285009-5.3723229-4.250412-9.4102141-8.856672-12.0247117z"/><path d="m99.1828666 32.8517298c-1.6952224-5.0807249-4.8682043-8.738056-9.4299836-10.8731466-2.6886326-1.2602965-5.7084019-1.8682043-9.4991762-1.9275124-6.7660626-.0939044-12.3558485 2.3476112-16.5963757 7.2602966v-24.57825373c-.0614935-1.4279913-1.2370774-2.55404026-2.6663921-2.55404026-1.4293146 0-2.6048985 1.12604896-2.666392 2.55404026v65.51070843c0 1.4821611 1.2015291 2.6836903 2.6836902 2.6836903 1.4821612 0 2.6836903-1.2015292 2.6836903-2.6836903v-26.4415157c-.0250967-.9915618.0327653-1.9834853.1729819-2.9654036 1.0280066-6.1136738 4.2751235-10.1762768 9.9192751-12.4299835 2.5354201-.9884679 5.4118616-1.3047776 8.8023064-.9093905 6.0197694.7018122 9.9242175 3.9242175 11.5996705 9.5733114.5914839 2.154514.8629211 4.3842979.8056014 6.6177924v26.5601318c.0054351 1.4709139 1.197942 2.661212 2.6688632 2.6639209h.0741351c.7073718.0013122 1.3862209-.2787706 1.8868725-.778495.5006514-.4997244.7819914-1.1780531.7819904-1.8854259v-26.9110379c.057779-2.8762616-.354567-5.7426534-1.2207574-8.4859967z"/><path d="m46.3640857 4.71499176h-43.31960465c-1.47943146 0-2.67874794 1.19931633-2.67874794 2.67874794 0 1.47943162 1.19931648 2.6787479 2.67874794 2.6787479h18.93904445v58.2009885c.0027198 1.467385 1.1915936 2.6562588 2.6589786 2.6589786h.0988468c1.4685134 0 2.6589786-1.1904652 2.6589786-2.6589786v-58.2454695h18.9637562c1.4226153-.06137611 2.5443687-1.23256869 2.5443687-2.65650742 0-1.42393874-1.1217534-2.59513132-2.5443687-2.65650742z"/><path d="m299.144975 54.1334432c-1.020466-.0045198-1.955194.5701087-2.411861 1.4827018-.3877.7680642-.823492 1.5108919-1.304778 2.2240527-3.64324 5.4857387-9.77885 8.7972262-16.364086 8.8319605-10.739703 0-19.517298-8.8072488-19.873146-19.7693575h45.168039v-.9884679c-.014922-1.1360412-.100756-2.2700427-.257001-3.3953872-1.764415-12.6820428-12.523888-22.2405271-25.028007-22.2405271s-23.268534 9.5436573-25.037891 22.2257001c-.158509 1.1234437-.244354 2.2559447-.257002 3.3904448v.3113674c0 14.3080725 11.367381 25.9522241 25.280066 25.9522241 9.239665-.0501717 17.711307-5.1517424 22.07743-13.294893.153213-.276771.29654-.553542.439868-.8401976.415685-.8286613.368845-1.8141692-.123558-2.5996706-.492947-.8018283-1.366837-1.2902337-2.308073-1.2899505zm-39.474464-12.479407c2.041186-9.2866556 10.023064-15.9093904 19.393739-15.9093904 9.370676 0 17.357496 6.6227348 19.39374 15.9093904z"/><path d="m161.668863 45.8995058c-.013297-1.1359374-.09748-2.2699379-.252059-3.3953872-1.779242-12.6820428-12.523888-22.2405272-25.008237-22.2405272-12.48435 0-23.263592 9.5683691-25.028007 22.2405272-.156855 1.1235504-.24105 2.2560514-.252059 3.3904448v.3113674c-.024712 14.3080725 11.317957 25.9522241 25.280066 25.9522241 9.237854-.0566175 17.706457-5.1563585 22.07743-13.294893.14827-.276771.29654-.553542.434926-.8401976.415684-.8286613.368844-1.8141692-.123559-2.5996706-.513127-.8364197-1.438532-1.3298718-2.41899-1.2898739-.980458.0399973-1.862594.6071881-2.305886 1.4826252-.386008.7679856-.820151 1.5108163-1.299836 2.2240527-3.64324 5.4857387-9.77885 8.7972262-16.364085 8.8319605-10.739704 0-19.522241-8.8072488-19.878089-19.7693575h45.172982zm-25.260296-20.15486c9.390445 0 17.357496 6.6227348 19.393739 15.9093904h-38.807248c2.036243-9.2866556 10.023064-15.9093904 19.413509-15.9093904z"/></g></g></svg>